#!OML:ASF H:\Male1\Project 1\Capture day 1\Session 1\Male1.ASF
:FULLY-SPECIFIED
:DEGREES
417
root 17.0346 15.4438 -3.54875 191.903 -82.2581 -194.059
lowerback 10.0683 0.392328 1.93354
upperback 3.98075 0.573938 1.39118
thorax -1.50066 0.223526 0.288433
lowerneck -3.61682 3.70333 8.54095
upperneck -5.24785 3.67134 -22.0788
head -0.226332 1.65323 -8.18941
rclavicle 1.11319e-014 -1.90833e-014
rhumerus -36.1684 18.2823 -84.6357
rradius 39.4159
rwrist -24.8623
rhand -16.7622 0.164213
rfingers 7.12502
rthumb 9.46479 -29.6032
lclavicle 1.11319e-014 -1.90833e-014
lhumerus 52.5674 4.67072 7.898
lradius 68.4604
lwrist -4.45693
lhand -53.3012 10.7429
lfingers 7.12502
lthumb -25.7543 39.02
rfemur -4.62201 10.7566 23.3993
rtibia 24.5833
rfoot -29.9501 -29.0655
rtoes -14.1284
lfemur -5.4765 -12.8153 -17.4819
ltibia 25.1581
lfoot -17.3437 20.0226
ltoes -10.591
418
root 17.0622 15.4502 -3.57759 192.629 -82.2294 -194.64
lowerback 10.2257 0.443297 1.90548
upperback 4.10562 0.633378 1.42579
thorax -1.45742 0.250058 0.332948
lowerneck -3.49652 3.7245 8.37406
upperneck -5.74336 3.61084 -22.1369
head -0.398179 1.65033 -8.18922
rclavicle -8.34896e-015 -5.56597e-015
rhumerus -35.5174 17.9829 -84.3531
rradius 39.1223
rwrist -24.5779
rhand -16.7755 0.518211
rfingers 7.12502
rthumb 9.45199 -29.2498
lclavicle -8.34896e-015 -5.56597e-015
lhumerus 55.3493 6.81219 9.32549
lradius 66.6509
lwrist -5.19394
lhand -53.8387 10.9317
lfingers 7.12502
lthumb -26.2689 39.1331
rfemur -4.9119 10.5895 23.3772
rtibia 24.5897
rfoot -29.9457 -29.0055
rtoes -14.8444
lfemur -5.74576 -12.6262 -17.4337
ltibia 25.1288
lfoot -17.2292 20.1489
ltoes -9.73163
419
root 17.0879 15.4592 -3.60923 193.264 -82.019 -195.015
lowerback 10.2427 0.501864 1.72201
upperback 4.22188 0.686464 1.51142
thorax -1.34934 0.272472 0.519026
lowerneck -3.71542 3.87977 8.21024
upperneck -5.82576 3.80092 -22.1747
head -0.35538 1.73559 -8.16403
rclavicle 7.95139e-015 7.95139e-015
rhumerus -34.7886 17.8357 -84.0056
rradius 38.9097
rwrist -24.0907
rhand -16.6585 0.778982
rfingers 7.12502
rthumb 9.56484 -28.9839
lclavicle 7.95139e-015 7.95139e-015
lhumerus 57.6681 8.89783 10.7106
lradius 64.5529
lwrist -5.79242
lhand -54.5791 11.051
lfingers 7.12502
lthumb -26.9775 39.1449
rfemur -5.34171 10.8298 23.3724
rtibia 24.6022
rfoot -29.8364 -29.1644
rtoes -14.978
lfemur -6.06455 -12.3951 -17.3678
ltibia 25.0224
lfoot -17.1296 20.42
ltoes -8.73414
420
root 17.1138 15.471 -3.64089 194.082 -81.6977 -195.504
lowerback 10.2806 0.556995 1.52415
upperback 4.23788 0.740535 1.53259
thorax -1.35659 0.296902 0.645877
lowerneck -4.04573 4.25104 8.3236
upperneck -5.92997 4.29283 -22.1497
head -0.246622 1.96412 -8.15545
rclavicle -1.39149e-015 4.77083e-015
rhumerus -34.3385 17.764 -83.9176
rradius 38.752
rwrist -24.0254
rhand -16.7054 0.231004
rfingers 7.12502
rthumb 9.51963 -29.534
lclavicle -1.39149e-015 4.77083e-015
lhumerus 59.683 10.8545 12.0027
lradius 62.1032
lwrist -6.3616
lhand -55.8059 9.3421
lfingers 7.12502
lthumb -28.1507 37.2487
rfemur -5.88302 11.1834 23.3153
rtibia 24.6729
rfoot -29.7381 -29.3688
rtoes -15.0967
lfemur -6.37578 -12.2285 -17.356
ltibia 24.7965
lfoot -16.989 20.8113
ltoes -8.09756
421
root 17.1351 15.4795 -3.66858 195.591 -81.2874 -196.84
lowerback 10.4411 0.614797 1.26629
upperback 4.19163 0.797446 1.46717
thorax -1.49554 0.323575 0.715254
lowerneck -3.98157 4.04914 8.17955
upperneck -5.50095 4.11129 -21.849
head -0.180971 1.86586 -8.03068
rclavicle -9.74045e-015 3.18055e-015
rhumerus -34.1669 17.778 -84.0763
rradius 38.4865
rwrist -24.3609
rhand -17.0761 0.753064
rfingers 7.12502
rthumb 9.16193 -29.0279
lclavicle -9.74045e-015 3.18055e-015
lhumerus 61.3897 12.5171 13.2804
lradius 59.5397
lwrist -6.59214
lhand -55.8147 12.7612
lfingers 7.12502
lthumb -28.1591 40.6664
rfemur -6.26455 11.3356 23.076
rtibia 24.773
rfoot -29.4862 -29.3893
rtoes -15.9049
lfemur -6.41884 -12.1209 -17.5744
ltibia 24.4963
lfoot -16.942 21.2024
ltoes -7.57455
